<?xml version="1.0" encoding="UTF-8"?>
<svg xmlns="http://www.w3.org/2000/svg" width="1600" height="1100" viewBox="0 0 1600 1100" role="img" aria-labelledby="title desc">
  <title id="title">A101 Floor Plan</title>
  <desc id="desc">Floor plan showing hot room, sidecar storage bay, benches, door swings, heater planning zone, and key dimensions.</desc>
  
    <defs>
      <marker id="arrow" viewBox="0 0 10 10" refX="5" refY="5" markerWidth="6" markerHeight="6" orient="auto-start-reverse">
        <path d="M0 0 L10 5 L0 10 Z" fill="#111827"/>
      </marker>
      <marker id="arrow-blue" viewBox="0 0 10 10" refX="5" refY="5" markerWidth="6" markerHeight="6" orient="auto-start-reverse">
        <path d="M0 0 L10 5 L0 10 Z" fill="#245f9f"/>
      </marker>
      <pattern id="soil-hatch" width="16" height="16" patternUnits="userSpaceOnUse" patternTransform="rotate(45)">
        <line x1="0" y1="0" x2="0" y2="16" stroke="#c9c1b4" stroke-width="1"/>
      </pattern>
      <pattern id="dg-hatch" width="18" height="18" patternUnits="userSpaceOnUse" patternTransform="rotate(45)">
        <line x1="0" y1="0" x2="0" y2="18" stroke="#b9a47d" stroke-width="1.2"/>
      </pattern>
      <pattern id="wood-hatch" width="34" height="10" patternUnits="userSpaceOnUse">
        <line x1="0" y1="5" x2="34" y2="5" stroke="#9a6b31" stroke-width="1"/>
      </pattern>
      <pattern id="siding" width="38" height="38" patternUnits="userSpaceOnUse">
        <line x1="0" y1="0" x2="0" y2="38" stroke="#c8ced6" stroke-width="1"/>
      </pattern>
      <style>
        .bg{fill:#fffdf8}
        .sheet-border{fill:none;stroke:#111827;stroke-width:2}
        .title-rule{stroke:#111827;stroke-width:1.2}
        .cut{fill:#d9dde3;stroke:#111827;stroke-width:5;stroke-linejoin:round}
        .object{fill:#fffdf8;stroke:#111827;stroke-width:2.4;stroke-linejoin:round}
        .object-light{fill:#fffdf8;stroke:#111827;stroke-width:1.4;stroke-linejoin:round}
        .hidden{fill:none;stroke:#5b6470;stroke-width:1.4;stroke-dasharray:8 6}
        .planning{fill:none;stroke:#a23d30;stroke-width:2.2;stroke-dasharray:10 7}
        .blue-line{fill:none;stroke:#245f9f;stroke-width:2.4}
        .blue-dash{fill:none;stroke:#245f9f;stroke-width:2;stroke-dasharray:9 6}
        .dim{fill:none;stroke:#111827;stroke-width:1.2}
        .ext{stroke:#5b6470;stroke-width:1;stroke-dasharray:5 5}
        .thin{fill:none;stroke:#111827;stroke-width:1.2}
        .med{fill:none;stroke:#111827;stroke-width:2.2}
        .heavy{fill:none;stroke:#111827;stroke-width:4}
        .title{font:800 28px Inter,ui-sans-serif,system-ui,sans-serif;fill:#111827}
        .subtitle{font:500 15px Inter,ui-sans-serif,system-ui,sans-serif;fill:#5b6470}
        .sheet-no{font:900 42px Inter,ui-sans-serif,system-ui,sans-serif;fill:#111827}
        .label{font:750 22px Inter,ui-sans-serif,system-ui,sans-serif;fill:#111827}
        .small{font:600 16px Inter,ui-sans-serif,system-ui,sans-serif;fill:#111827}
        .tiny{font:600 13px Inter,ui-sans-serif,system-ui,sans-serif;fill:#111827}
        .note{font:500 15px Inter,ui-sans-serif,system-ui,sans-serif;fill:#5b6470}
        .dimtxt{font:800 17px Inter,ui-sans-serif,system-ui,sans-serif;fill:#111827}
        .key{font:800 13px Inter,ui-sans-serif,system-ui,sans-serif;fill:#fff}
      </style>
    </defs>
  <rect width="1600" height="1100" class="bg"/>
  <rect x="42" y="42" width="1516" height="1016" class="sheet-border"/>
  <line x1="42" y1="980" x2="1558" y2="980" class="title-rule"/>
  <line x1="1138" y1="980" x2="1138" y2="1058" class="title-rule"/>
  <text x="66" y="1018" class="title">Floor Plan</text>
  <text x="66" y="1046" class="subtitle">70 x 84 hot room; 60 x 84 sidecar; centered sauna door; heater on right wall</text>
  <text x="1170" y="1026" class="sheet-no">A101</text>
  <text x="1170" y="1050" class="tiny">Side-yard sauna planning set | not stamped</text>
  
      <rect x="260" y="205" width="888" height="576" class="cut" />
      <rect x="296" y="241" width="420" height="504" class="object-light" fill="#fff8e8" stroke="#111827" stroke-width="1.6"/>
      <rect x="716" y="241" width="36" height="504" class="cut" />
      <rect x="752" y="241" width="360" height="504" class="object-light" fill="#eef5ee" stroke="#111827" stroke-width="1.6"/>
      <rect x="416" y="743" width="180" height="42" class="" fill="#fffdf8" stroke="#fffdf8"/>
      <path d="M416 781 A180 180 0 0 0 596 961" class="thin"/><line x1="416" y1="781" x2="596" y2="781" class="med"/>
      <rect x="842" y="743" width="180" height="42" class="" fill="#fffdf8" stroke="#fffdf8"/>
      <path d="M842 781 A180 180 0 0 0 1022 961" class="thin"/><line x1="842" y1="781" x2="1022" y2="781" class="med"/>
      <rect x="296" y="241" width="420" height="144" class="object-light" fill="url(#wood-hatch)" stroke="#111827" stroke-width="2"/>
      <rect x="296" y="241" width="144" height="312" class="object-light" fill="url(#wood-hatch)" stroke="#111827" stroke-width="2"/>
      <rect x="302" y="387" width="306" height="108" class="object-light" fill="#f4dfbd"/>
      <rect x="444" y="497" width="268" height="72" class="object-light" fill="#f6e8cf"/>
      <rect x="481" y="585" width="132" height="66" class="object-light" fill="#f6e8cf"/>
      <rect x="536" y="543" width="168" height="168" class="planning" />
      <circle cx="620" cy="627" r="54" class="" fill="#2f343b" stroke="#111827" stroke-width="2.4"/>
      <circle cx="620" cy="627" r="33" class="" fill="#747b84" stroke="#fffdf8" stroke-width="1"/>
      <text x="620" y="632" class="tiny" text-anchor="middle" fill="#fff">18 in</text>
      <rect x="794" y="285" width="260" height="62" class="object-light" fill="#d9eadc"/>
      <rect x="794" y="373" width="260" height="62" class="object-light" fill="#d9eadc"/>
      <rect x="1038" y="469" width="42" height="230" class="object-light" fill="#d9eadc"/>
      <text x="506" y="513" class="label" text-anchor="middle" >hot room</text>
      <text x="932" y="513" class="label" text-anchor="middle" >sidecar</text>
      
    <circle cx="646" cy="299" r="13" fill="#111827" stroke="#fffdf8" stroke-width="2"/>
    <text x="646" y="304" class="key" text-anchor="middle" >1</text>
      
    <circle cx="366" cy="491" r="13" fill="#111827" stroke="#fffdf8" stroke-width="2"/>
    <text x="366" y="496" class="key" text-anchor="middle" >2</text>
      
    <circle cx="692" cy="555" r="13" fill="#111827" stroke="#fffdf8" stroke-width="2"/>
    <text x="692" y="560" class="key" text-anchor="middle" >3</text>
      
    <circle cx="506" cy="839" r="13" fill="#111827" stroke="#fffdf8" stroke-width="2"/>
    <text x="506" y="844" class="key" text-anchor="middle" >4</text>
      
    <circle cx="1042" cy="333" r="13" fill="#111827" stroke="#fffdf8" stroke-width="2"/>
    <text x="1042" y="338" class="key" text-anchor="middle" >5</text>
      
    <line x1="260" y1="117" x2="260" y2="159" class="ext"/>
    <line x1="1148" y1="117" x2="1148" y2="159" class="ext"/>
    <line x1="260" y1="141" x2="1148" y2="141" class="dim"/>
    <line x1="252" y1="149" x2="268" y2="133" class="dim"/>
    <line x1="1140" y1="149" x2="1156" y2="133" class="dim"/>
    <text x="704" y="132" class="dimtxt" text-anchor="middle" >148 in outside wall</text>
      
    <line x1="296" y1="155" x2="296" y2="197" class="ext"/>
    <line x1="716" y1="155" x2="716" y2="197" class="ext"/>
    <line x1="296" y1="179" x2="716" y2="179" class="dim"/>
    <line x1="288" y1="187" x2="304" y2="171" class="dim"/>
    <line x1="708" y1="187" x2="724" y2="171" class="dim"/>
    <text x="506" y="170" class="dimtxt" text-anchor="middle" >70 in clear hot room</text>
      
    <line x1="752" y1="155" x2="752" y2="197" class="ext"/>
    <line x1="1112" y1="155" x2="1112" y2="197" class="ext"/>
    <line x1="752" y1="179" x2="1112" y2="179" class="dim"/>
    <line x1="744" y1="187" x2="760" y2="171" class="dim"/>
    <line x1="1104" y1="187" x2="1120" y2="171" class="dim"/>
    <text x="932" y="170" class="dimtxt" text-anchor="middle" >60 in clear sidecar</text>
      
    <line x1="168" y1="205" x2="208" y2="205" class="ext"/>
    <line x1="168" y1="781" x2="208" y2="781" class="ext"/>
    <line x1="188" y1="205" x2="188" y2="781" class="dim"/>
    <line x1="180" y1="197" x2="196" y2="213" class="dim"/>
    <line x1="180" y1="773" x2="196" y2="789" class="dim"/>
    <text x="178" y="493" class="dimtxt" text-anchor="middle" transform="rotate(-90 178 493)">96 in outside wall</text>
      
    <line x1="212" y1="241" x2="252" y2="241" class="ext"/>
    <line x1="212" y1="745" x2="252" y2="745" class="ext"/>
    <line x1="232" y1="241" x2="232" y2="745" class="dim"/>
    <line x1="224" y1="233" x2="240" y2="249" class="dim"/>
    <line x1="224" y1="737" x2="240" y2="753" class="dim"/>
    <text x="222" y="493" class="dimtxt" text-anchor="middle" transform="rotate(-90 222 493)">84 in clear depth</text>
      
    <line x1="416" y1="849" x2="416" y2="891" class="ext"/>
    <line x1="596" y1="849" x2="596" y2="891" class="ext"/>
    <line x1="416" y1="873" x2="596" y2="873" class="dim"/>
    <line x1="408" y1="881" x2="424" y2="865" class="dim"/>
    <line x1="588" y1="881" x2="604" y2="865" class="dim"/>
    <text x="506" y="896" class="dimtxt" text-anchor="middle" >30 in sauna door</text>
      <text x="704" y="923" class="label" text-anchor="middle" >Front / approach side</text>
      
    <g transform="translate(1220 224)">
      <text x="0" y="0" class="label" text-anchor="start" >Plan keynotes</text>
      
      
    <circle cx="13" cy="31" r="13" fill="#111827" stroke="#fffdf8" stroke-width="2"/>
    <text x="13" y="36" class="key" text-anchor="middle" >1</text>
      <text x="38" y="36" class="note" text-anchor="start" >24 in upper bench along back wall.</text>
      
    <circle cx="13" cy="76" r="13" fill="#111827" stroke="#fffdf8" stroke-width="2"/>
    <text x="13" y="81" class="key" text-anchor="middle" >2</text>
      <text x="38" y="81" class="note" text-anchor="start" >24 in return seat for the third person.</text>
      
    <circle cx="13" cy="121" r="13" fill="#111827" stroke="#fffdf8" stroke-width="2"/>
    <text x="13" y="126" class="key" text-anchor="middle" >3</text>
      <text x="38" y="126" class="note" text-anchor="start" >28 x 28 planning zone around HIVE Mini.</text>
      
    <circle cx="13" cy="166" r="13" fill="#111827" stroke="#fffdf8" stroke-width="2"/>
    <text x="13" y="171" class="key" text-anchor="middle" >4</text>
      <text x="38" y="171" class="note" text-anchor="start" >Door centered on hot room; trim field-fit.</text>
      
    <circle cx="13" cy="211" r="13" fill="#111827" stroke="#fffdf8" stroke-width="2"/>
    <text x="13" y="216" class="key" text-anchor="middle" >5</text>
      <text x="38" y="216" class="note" text-anchor="start" >Storage shelves stay out of hot-room</text><text x="38" y="235" class="note" text-anchor="start" >envelope.</text>
    </g>
      <g transform="translate(1220 520)"><rect x="0" y="0" width="310" height="176" class="object-light" fill="#fffdf8"/><text x="14" y="27" class="small" text-anchor="start" >Capacity read</text><line x1="0" y1="40" x2="310" y2="40" class="thin"/><line x1="0" y1="74" x2="310" y2="74" class="thin"/><text x="14" y="63" class="tiny" text-anchor="start" >2 people</text><text x="134" y="63" class="tiny" text-anchor="start" >excellent</text><line x1="0" y1="108" x2="310" y2="108" class="thin"/><text x="14" y="97" class="tiny" text-anchor="start" >3 people</text><text x="134" y="97" class="tiny" text-anchor="start" >good</text><line x1="0" y1="142" x2="310" y2="142" class="thin"/><text x="14" y="131" class="tiny" text-anchor="start" >4 people</text><text x="134" y="131" class="tiny" text-anchor="start" >compromised</text><line x1="0" y1="176" x2="310" y2="176" class="thin"/><text x="14" y="165" class="tiny" text-anchor="start" >Use</text><text x="134" y="165" class="tiny" text-anchor="start" >sitting sauna</text><line x1="120" y1="40" x2="120" y2="176" class="thin"/></g>
</svg>